<svg xmlns="http://www.w3.org/2000/svg" fill="#6301FF" fill-rule="evenodd" stroke-linejoin="round" stroke-miterlimit="1.41421" clip-rule="evenodd" viewBox="0 0 238 238">
  <path fill-rule="nonzero" d="M116.8 170.135c.933-.067 1.867.367 2.8 1.3l19.35 19.35c1.733 1.733 1.733 3.483 0 5.25l-16.5 16.45c-1.733 1.733-3.467 1.733-5.2 0l-10.5-10.5a1.26 1.26 0 0 1-.3-.5l-.1-.05-.1.05-8.35-8.35c-1.767-1.733-1.767-3.467 0-5.2l16.45-16.5c.833-.8 1.65-1.233 2.45-1.3m15.65-134.05c1.8 1.733 1.833 3.5.1 5.3l-16.5 16.4c-1.8 1.8-3.6 1.833-5.4.1l-10.55-10.5c-1.733-1.8-1.7-3.6.1-5.4l16.6-16.5c1.733-1.667 3.433-1.633 5.1.1l10.55 10.5m-46.5 46.5l-10.5-10.55c-1.733-1.8-1.7-3.6.1-5.4l16.35-16.4c1.8-1.8 3.583-1.8 5.35 0l10.5 10.55c1.8 1.733 1.8 3.5 0 5.3l-16.4 16.4c-1.8 1.8-3.6 1.833-5.4.1M83 85.535c1.8 1.767 1.817 3.517.05 5.25l-16.45 16.45c-1.733 1.767-3.5 1.767-5.3 0l-10.55-10.5c-1.733-1.8-1.733-3.567 0-5.3l16.5-16.5c1.733-1.733 3.467-1.7 5.2.1L83 85.535m-56.95 30.55l16.5-16.45c1.733-1.767 3.467-1.733 5.2.1l10.55 10.5c1.8 1.733 1.833 3.467.1 5.2l-16.5 16.5c-1.733 1.733-3.5 1.733-5.3 0l-10.55-10.5c-1.733-1.8-1.733-3.583 0-5.35m149.6-36.85l10.55 10.5c1.733 1.733 1.733 3.5 0 5.3l-90.65 90.55c-1.733 1.733-3.467 1.733-5.2 0l-10.55-10.55a1.406 1.406 0 0 1-.35-.55c-.433-.3-.833-.6-1.2-.9l-22-22.1c-.3-.3-.583-.633-.85-1-.233-.133-.45-.3-.65-.5l-10.5-10.5c-1.8-1.733-1.833-3.467-.1-5.2l16.5-16.5c1.733-1.733 3.5-1.733 5.3 0l10.5 10.5c.2.2.383.4.55.6.333.3.65.6.95.9l20.85 20.95 52.35-52.35-19.75-19.8-46.75 46.75c-1.733 1.733-3.467 1.733-5.2 0l-10.55-10.55c-1.8-1.733-1.833-3.467-.1-5.2l65.95-65.85c1.733-1.8 3.5-1.833 5.3-.1l10.55 10.55c.133.1.25.217.35.35l.75.75 22.85 22.8c.233.267.483.517.75.75.033.133.15.267.35.4m60.65 41.9c1.6-1.6 1.6-3.217 0-4.85L121.15 1.185c-1.433-1.433-2.883-1.567-4.35-.4a3.26 3.26 0 0 1-.5.4l-115.1 115c-1.6 1.7-1.6 3.35 0 4.95l115.6 115.6c1.467 1.1 2.917.9 4.35-.6l115.15-115"/>
</svg>
